%TF.GenerationSoftware,KiCad,Pcbnew,10.0.4*%
%TF.CreationDate,2026-07-17T03:26:19+02:00*%
%TF.ProjectId,z80_schematic,7a38305f-7363-4686-956d-617469632e6b,rev?*%
%TF.SameCoordinates,Original*%
%TF.FileFunction,Soldermask,Bot*%
%TF.FilePolarity,Negative*%
%FSLAX46Y46*%
G04 Gerber Fmt 4.6, Leading zero omitted, Abs format (unit mm)*
G04 Created by KiCad (PCBNEW 10.0.4) date 2026-07-17 03:26:19*
%MOMM*%
%LPD*%
G01*
G04 APERTURE LIST*
G04 Aperture macros list*
%AMRoundRect*
0 Rectangle with rounded corners*
0 $1 Rounding radius*
0 $2 $3 $4 $5 $6 $7 $8 $9 X,Y pos of 4 corners*
0 Add a 4 corners polygon primitive as box body*
4,1,4,$2,$3,$4,$5,$6,$7,$8,$9,$2,$3,0*
0 Add four circle primitives for the rounded corners*
1,1,$1+$1,$2,$3*
1,1,$1+$1,$4,$5*
1,1,$1+$1,$6,$7*
1,1,$1+$1,$8,$9*
0 Add four rect primitives between the rounded corners*
20,1,$1+$1,$2,$3,$4,$5,0*
20,1,$1+$1,$4,$5,$6,$7,0*
20,1,$1+$1,$6,$7,$8,$9,0*
20,1,$1+$1,$8,$9,$2,$3,0*%
G04 Aperture macros list end*
%ADD10O,2.400000X1.600000*%
%ADD11RoundRect,0.250000X-0.950000X-0.550000X0.950000X-0.550000X0.950000X0.550000X-0.950000X0.550000X0*%
%ADD12C,1.600000*%
%ADD13C,2.000000*%
%ADD14RoundRect,0.250000X0.950000X0.550000X-0.950000X0.550000X-0.950000X-0.550000X0.950000X-0.550000X0*%
%ADD15C,1.800000*%
%ADD16R,1.800000X1.800000*%
%ADD17R,1.600000X1.600000*%
%ADD18O,1.600000X2.400000*%
%ADD19RoundRect,0.250000X0.550000X-0.950000X0.550000X0.950000X-0.550000X0.950000X-0.550000X-0.950000X0*%
%ADD20C,2.800000*%
%ADD21RoundRect,0.250000X-0.550000X0.950000X-0.550000X-0.950000X0.550000X-0.950000X0.550000X0.950000X0*%
%ADD22O,2.000000X1.440000*%
%ADD23R,2.000000X1.440000*%
%ADD24C,1.200000*%
%ADD25O,1.200000X1.600000*%
%ADD26C,2.400000*%
%ADD27C,1.700000*%
%ADD28R,1.700000X1.700000*%
%ADD29C,2.250000*%
%ADD30C,1.300000*%
%ADD31O,2.000000X3.600000*%
%ADD32RoundRect,0.250000X0.750000X1.550000X-0.750000X1.550000X-0.750000X-1.550000X0.750000X-1.550000X0*%
%ADD33C,1.400000*%
G04 APERTURE END LIST*
D10*
%TO.C,U6*%
X226112000Y-180122000D03*
X226112000Y-182662000D03*
X226112000Y-185202000D03*
X226112000Y-187742000D03*
X218492000Y-187742000D03*
X218492000Y-185202000D03*
X218492000Y-182662000D03*
D11*
X218492000Y-180122000D03*
%TD*%
D12*
%TO.C,C6*%
X129834000Y-36068000D03*
X134834000Y-36068000D03*
%TD*%
%TO.C,C26*%
X141692000Y-118618000D03*
X136692000Y-118618000D03*
%TD*%
D13*
%TO.C,SW2*%
X218544000Y-193112000D03*
X225044000Y-193112000D03*
X218544000Y-197612000D03*
X225044000Y-197612000D03*
%TD*%
D12*
%TO.C,C12*%
X183722000Y-36068000D03*
X188722000Y-36068000D03*
%TD*%
%TO.C,C36*%
X182078000Y-118618000D03*
X177078000Y-118618000D03*
%TD*%
D10*
%TO.C,U20*%
X88138000Y-146558000D03*
X88138000Y-144018000D03*
X88138000Y-141478000D03*
X88138000Y-138938000D03*
X88138000Y-136398000D03*
X88138000Y-133858000D03*
X88138000Y-131318000D03*
X88138000Y-128778000D03*
X88138000Y-126238000D03*
X88138000Y-123698000D03*
X95758000Y-123698000D03*
X95758000Y-126238000D03*
X95758000Y-128778000D03*
X95758000Y-131318000D03*
X95758000Y-133858000D03*
X95758000Y-136398000D03*
X95758000Y-138938000D03*
X95758000Y-141478000D03*
X95758000Y-144018000D03*
D14*
X95758000Y-146558000D03*
%TD*%
D15*
%TO.C,D38*%
X76200000Y-45720000D03*
D16*
X73660000Y-45720000D03*
%TD*%
D15*
%TO.C,D34*%
X76200000Y-60960000D03*
D16*
X73660000Y-60960000D03*
%TD*%
D12*
%TO.C,U27*%
X102616000Y-167386000D03*
X105156000Y-167386000D03*
X107696000Y-167386000D03*
X110236000Y-167386000D03*
X112776000Y-167386000D03*
X112776000Y-182626000D03*
X110236000Y-182626000D03*
X107696000Y-182626000D03*
X105156000Y-182626000D03*
D17*
X102616000Y-182626000D03*
%TD*%
D18*
%TO.C,U8*%
X144018000Y-92710000D03*
X146558000Y-92710000D03*
X149098000Y-92710000D03*
X151638000Y-92710000D03*
X154178000Y-92710000D03*
X156718000Y-92710000D03*
X159258000Y-92710000D03*
X161798000Y-92710000D03*
X164338000Y-92710000D03*
X166878000Y-92710000D03*
X166878000Y-100330000D03*
X164338000Y-100330000D03*
X161798000Y-100330000D03*
X159258000Y-100330000D03*
X156718000Y-100330000D03*
X154178000Y-100330000D03*
X151638000Y-100330000D03*
X149098000Y-100330000D03*
X146558000Y-100330000D03*
D19*
X144018000Y-100330000D03*
%TD*%
D12*
%TO.C,C21*%
X171704000Y-116118000D03*
X171704000Y-118618000D03*
%TD*%
%TO.C,C25*%
X94448000Y-118618000D03*
X89448000Y-118618000D03*
%TD*%
D20*
%TO.C,C1*%
X228600000Y-148544000D03*
X228600000Y-111044000D03*
%TD*%
D12*
%TO.C,C38*%
X203962000Y-112990000D03*
X203962000Y-107990000D03*
%TD*%
D18*
%TO.C,U9*%
X136652000Y-105918000D03*
X134112000Y-105918000D03*
X131572000Y-105918000D03*
X129032000Y-105918000D03*
X126492000Y-105918000D03*
X123952000Y-105918000D03*
X121412000Y-105918000D03*
X121412000Y-98298000D03*
X123952000Y-98298000D03*
X126492000Y-98298000D03*
X129032000Y-98298000D03*
X131572000Y-98298000D03*
X134112000Y-98298000D03*
D21*
X136652000Y-98298000D03*
%TD*%
D22*
%TO.C,U1*%
X228347500Y-49410000D03*
X228347500Y-51950000D03*
X228347500Y-54490000D03*
X228347500Y-57030000D03*
X228347500Y-59570000D03*
X228347500Y-62110000D03*
X228347500Y-64650000D03*
X228347500Y-67190000D03*
X228347500Y-69730000D03*
X228347500Y-72270000D03*
X228347500Y-74810000D03*
X228347500Y-77350000D03*
X228347500Y-79890000D03*
X228347500Y-82430000D03*
X228347500Y-84970000D03*
X228347500Y-87510000D03*
X228347500Y-90050000D03*
X228347500Y-92590000D03*
X228347500Y-95130000D03*
X228347500Y-97670000D03*
X213107500Y-97670000D03*
X213107500Y-95130000D03*
X213107500Y-92590000D03*
X213107500Y-90050000D03*
X213107500Y-87510000D03*
X213107500Y-84970000D03*
X213107500Y-82430000D03*
X213107500Y-79890000D03*
X213107500Y-77350000D03*
X213107500Y-74810000D03*
X213107500Y-72270000D03*
X213107500Y-69730000D03*
X213107500Y-67190000D03*
X213107500Y-64650000D03*
X213107500Y-62110000D03*
X213107500Y-59570000D03*
X213107500Y-57030000D03*
X213107500Y-54490000D03*
X213107500Y-51950000D03*
D23*
X213107500Y-49410000D03*
%TD*%
D22*
%TO.C,U5*%
X162560000Y-49530000D03*
X162560000Y-52070000D03*
X162560000Y-54610000D03*
X162560000Y-57150000D03*
X162560000Y-59690000D03*
X162560000Y-62230000D03*
X162560000Y-64770000D03*
X162560000Y-67310000D03*
X162560000Y-69850000D03*
X162560000Y-72390000D03*
X162560000Y-74930000D03*
X162560000Y-77470000D03*
X162560000Y-80010000D03*
X162560000Y-82550000D03*
X147320000Y-82550000D03*
X147320000Y-80010000D03*
X147320000Y-77470000D03*
X147320000Y-74930000D03*
X147320000Y-72390000D03*
X147320000Y-69850000D03*
X147320000Y-67310000D03*
X147320000Y-64770000D03*
X147320000Y-62230000D03*
X147320000Y-59690000D03*
X147320000Y-57150000D03*
X147320000Y-54610000D03*
X147320000Y-52070000D03*
D23*
X147320000Y-49530000D03*
%TD*%
D24*
%TO.C,Q48*%
X215613961Y-164370039D03*
X216883961Y-165640039D03*
D25*
X215613961Y-166910039D03*
%TD*%
D26*
%TO.C,R61*%
X208534000Y-186436000D03*
X208534000Y-171196000D03*
%TD*%
D12*
%TO.C,C30*%
X218520000Y-153670000D03*
X223520000Y-153670000D03*
%TD*%
%TO.C,C34*%
X189016000Y-103632000D03*
X194016000Y-103632000D03*
%TD*%
D15*
%TO.C,D33*%
X76200000Y-76200000D03*
D16*
X73660000Y-76200000D03*
%TD*%
D10*
%TO.C,U17*%
X199644000Y-108458000D03*
X199644000Y-110998000D03*
X199644000Y-113538000D03*
X199644000Y-116078000D03*
X199644000Y-118618000D03*
X199644000Y-121158000D03*
X199644000Y-123698000D03*
X199644000Y-126238000D03*
X199644000Y-128778000D03*
X199644000Y-131318000D03*
X192024000Y-131318000D03*
X192024000Y-128778000D03*
X192024000Y-126238000D03*
X192024000Y-123698000D03*
X192024000Y-121158000D03*
X192024000Y-118618000D03*
X192024000Y-116078000D03*
X192024000Y-113538000D03*
X192024000Y-110998000D03*
D11*
X192024000Y-108458000D03*
%TD*%
D12*
%TO.C,C18*%
X131318000Y-116118000D03*
X131318000Y-118618000D03*
%TD*%
D15*
%TO.C,D28*%
X76200000Y-190500000D03*
D16*
X73660000Y-190500000D03*
%TD*%
D12*
%TO.C,C5*%
X220178000Y-36068000D03*
X215178000Y-36068000D03*
%TD*%
D15*
%TO.C,D30*%
X241046000Y-41656000D03*
D16*
X238506000Y-41656000D03*
%TD*%
D18*
%TO.C,U15*%
X111506000Y-105918000D03*
X108966000Y-105918000D03*
X106426000Y-105918000D03*
X103886000Y-105918000D03*
X101346000Y-105918000D03*
X98806000Y-105918000D03*
X96266000Y-105918000D03*
X96266000Y-98298000D03*
X98806000Y-98298000D03*
X101346000Y-98298000D03*
X103886000Y-98298000D03*
X106426000Y-98298000D03*
X108966000Y-98298000D03*
D21*
X111506000Y-98298000D03*
%TD*%
D27*
%TO.C,J4*%
X267208000Y-79248000D03*
X267208000Y-81788000D03*
X267208000Y-84328000D03*
X267208000Y-86868000D03*
X267208000Y-89408000D03*
X267208000Y-91948000D03*
X267208000Y-94488000D03*
X267208000Y-97028000D03*
X267208000Y-99568000D03*
X267208000Y-102108000D03*
X267208000Y-104648000D03*
X267208000Y-107188000D03*
X267208000Y-109728000D03*
D28*
X267208000Y-112268000D03*
%TD*%
D10*
%TO.C,U16*%
X209042000Y-132334000D03*
X209042000Y-129794000D03*
X209042000Y-127254000D03*
X209042000Y-124714000D03*
X209042000Y-122174000D03*
X209042000Y-119634000D03*
X209042000Y-117094000D03*
X209042000Y-114554000D03*
X209042000Y-112014000D03*
X209042000Y-109474000D03*
X216662000Y-109474000D03*
X216662000Y-112014000D03*
X216662000Y-114554000D03*
X216662000Y-117094000D03*
X216662000Y-119634000D03*
X216662000Y-122174000D03*
X216662000Y-124714000D03*
X216662000Y-127254000D03*
X216662000Y-129794000D03*
D14*
X216662000Y-132334000D03*
%TD*%
D29*
%TO.C,SW8*%
X199390000Y-136362000D03*
X199390000Y-144562000D03*
D30*
X199390000Y-138462000D03*
X199390000Y-140462000D03*
X199390000Y-142462000D03*
%TD*%
D13*
%TO.C,SW1*%
X234852000Y-193148000D03*
X241352000Y-193148000D03*
X234852000Y-197648000D03*
X241352000Y-197648000D03*
%TD*%
D26*
%TO.C,R16*%
X257810000Y-171196000D03*
X257810000Y-186436000D03*
%TD*%
D29*
%TO.C,SW4*%
X251750000Y-168402000D03*
X243550000Y-168402000D03*
D30*
X249650000Y-168402000D03*
X247650000Y-168402000D03*
X245650000Y-168402000D03*
%TD*%
D15*
%TO.C,D32*%
X76200000Y-91440000D03*
D16*
X73660000Y-91440000D03*
%TD*%
D12*
%TO.C,C2*%
X229922000Y-178892000D03*
X229922000Y-183892000D03*
%TD*%
D10*
%TO.C,U2*%
X253746000Y-102367000D03*
X253746000Y-104907000D03*
X253746000Y-107447000D03*
X253746000Y-109987000D03*
X253746000Y-112527000D03*
X253746000Y-115067000D03*
X253746000Y-117607000D03*
X253746000Y-120147000D03*
X253746000Y-122687000D03*
X253746000Y-125227000D03*
X253746000Y-127767000D03*
X253746000Y-130307000D03*
X253746000Y-132847000D03*
X253746000Y-135387000D03*
X253746000Y-137927000D03*
X253746000Y-140467000D03*
X253746000Y-143007000D03*
X253746000Y-145547000D03*
X253746000Y-148087000D03*
X253746000Y-150627000D03*
X238506000Y-150627000D03*
X238506000Y-148087000D03*
X238506000Y-145547000D03*
X238506000Y-143007000D03*
X238506000Y-140467000D03*
X238506000Y-137927000D03*
X238506000Y-135387000D03*
X238506000Y-132847000D03*
X238506000Y-130307000D03*
X238506000Y-127767000D03*
X238506000Y-125227000D03*
X238506000Y-122687000D03*
X238506000Y-120147000D03*
X238506000Y-117607000D03*
X238506000Y-115067000D03*
X238506000Y-112527000D03*
X238506000Y-109987000D03*
X238506000Y-107447000D03*
X238506000Y-104907000D03*
D11*
X238506000Y-102367000D03*
%TD*%
D12*
%TO.C,C3*%
X244908000Y-197608000D03*
X244908000Y-192608000D03*
%TD*%
D15*
%TO.C,D27*%
X76200000Y-175260000D03*
D16*
X73660000Y-175260000D03*
%TD*%
D12*
%TO.C,U32*%
X158750000Y-167386000D03*
X161290000Y-167386000D03*
X163830000Y-167386000D03*
X166370000Y-167386000D03*
X168910000Y-167386000D03*
X168910000Y-182626000D03*
X166370000Y-182626000D03*
X163830000Y-182626000D03*
X161290000Y-182626000D03*
D17*
X158750000Y-182626000D03*
%TD*%
D12*
%TO.C,C13*%
X157560000Y-36068000D03*
X162560000Y-36068000D03*
%TD*%
D26*
%TO.C,R60*%
X203962000Y-167640000D03*
X203962000Y-152400000D03*
%TD*%
D22*
%TO.C,U10*%
X188847500Y-49510000D03*
X188847500Y-52050000D03*
X188847500Y-54590000D03*
X188847500Y-57130000D03*
X188847500Y-59670000D03*
X188847500Y-62210000D03*
X188847500Y-64750000D03*
X188847500Y-67290000D03*
X188847500Y-69830000D03*
X188847500Y-72370000D03*
X188847500Y-74910000D03*
X188847500Y-77450000D03*
X188847500Y-79990000D03*
X188847500Y-82530000D03*
X173607500Y-82530000D03*
X173607500Y-79990000D03*
X173607500Y-77450000D03*
X173607500Y-74910000D03*
X173607500Y-72370000D03*
X173607500Y-69830000D03*
X173607500Y-67290000D03*
X173607500Y-64750000D03*
X173607500Y-62210000D03*
X173607500Y-59670000D03*
X173607500Y-57130000D03*
X173607500Y-54590000D03*
X173607500Y-52050000D03*
D23*
X173607500Y-49510000D03*
%TD*%
D12*
%TO.C,C9*%
X160234000Y-105664000D03*
X155234000Y-105664000D03*
%TD*%
D10*
%TO.C,U7*%
X197190000Y-74930000D03*
X197190000Y-72390000D03*
X197190000Y-69850000D03*
X197190000Y-67310000D03*
X197190000Y-64770000D03*
X197190000Y-62230000D03*
X197190000Y-59690000D03*
X197190000Y-57150000D03*
X197190000Y-54610000D03*
X197190000Y-52070000D03*
X204810000Y-52070000D03*
X204810000Y-54610000D03*
X204810000Y-57150000D03*
X204810000Y-59690000D03*
X204810000Y-62230000D03*
X204810000Y-64770000D03*
X204810000Y-67310000D03*
X204810000Y-69850000D03*
X204810000Y-72390000D03*
D14*
X204810000Y-74930000D03*
%TD*%
D15*
%TO.C,D37*%
X147061000Y-106172000D03*
D16*
X144521000Y-106172000D03*
%TD*%
D15*
%TO.C,D29*%
X241046000Y-156972000D03*
D16*
X238506000Y-156972000D03*
%TD*%
D12*
%TO.C,U24*%
X86868000Y-167386000D03*
X89408000Y-167386000D03*
X91948000Y-167386000D03*
X94488000Y-167386000D03*
X97028000Y-167386000D03*
X97028000Y-182626000D03*
X94488000Y-182626000D03*
X91948000Y-182626000D03*
X89408000Y-182626000D03*
D17*
X86868000Y-182626000D03*
%TD*%
D15*
%TO.C,D24*%
X76200000Y-129540000D03*
D16*
X73660000Y-129540000D03*
%TD*%
D12*
%TO.C,C16*%
X188738000Y-173482000D03*
X190738000Y-173482000D03*
%TD*%
D15*
%TO.C,D23*%
X76200000Y-114300000D03*
D16*
X73660000Y-114300000D03*
%TD*%
D12*
%TO.C,C37*%
X204724000Y-127294000D03*
X204724000Y-132294000D03*
%TD*%
%TO.C,C7*%
X258572000Y-143978000D03*
X258572000Y-138978000D03*
%TD*%
D10*
%TO.C,U30*%
X160020000Y-146558000D03*
X160020000Y-144018000D03*
X160020000Y-141478000D03*
X160020000Y-138938000D03*
X160020000Y-136398000D03*
X160020000Y-133858000D03*
X160020000Y-131318000D03*
X160020000Y-128778000D03*
X160020000Y-126238000D03*
X160020000Y-123698000D03*
X167640000Y-123698000D03*
X167640000Y-126238000D03*
X167640000Y-128778000D03*
X167640000Y-131318000D03*
X167640000Y-133858000D03*
X167640000Y-136398000D03*
X167640000Y-138938000D03*
X167640000Y-141478000D03*
X167640000Y-144018000D03*
D14*
X167640000Y-146558000D03*
%TD*%
D10*
%TO.C,U23*%
X103886000Y-146558000D03*
X103886000Y-144018000D03*
X103886000Y-141478000D03*
X103886000Y-138938000D03*
X103886000Y-136398000D03*
X103886000Y-133858000D03*
X103886000Y-131318000D03*
X103886000Y-128778000D03*
X103886000Y-126238000D03*
X103886000Y-123698000D03*
X111506000Y-123698000D03*
X111506000Y-126238000D03*
X111506000Y-128778000D03*
X111506000Y-131318000D03*
X111506000Y-133858000D03*
X111506000Y-136398000D03*
X111506000Y-138938000D03*
X111506000Y-141478000D03*
X111506000Y-144018000D03*
D14*
X111506000Y-146558000D03*
%TD*%
D27*
%TO.C,J1*%
X267208000Y-154178000D03*
X267208000Y-156718000D03*
X267208000Y-159258000D03*
X267208000Y-161798000D03*
X267208000Y-164338000D03*
X267208000Y-166878000D03*
X267208000Y-169418000D03*
X267208000Y-171958000D03*
X267208000Y-174498000D03*
X267208000Y-177038000D03*
X267208000Y-179578000D03*
X267208000Y-182118000D03*
X267208000Y-184658000D03*
D28*
X267208000Y-187198000D03*
%TD*%
D13*
%TO.C,L1*%
X223515000Y-158496000D03*
X208275000Y-158496000D03*
%TD*%
D22*
%TO.C,U3*%
X111506000Y-49530000D03*
X111506000Y-52070000D03*
X111506000Y-54610000D03*
X111506000Y-57150000D03*
X111506000Y-59690000D03*
X111506000Y-62230000D03*
X111506000Y-64770000D03*
X111506000Y-67310000D03*
X111506000Y-69850000D03*
X111506000Y-72390000D03*
X111506000Y-74930000D03*
X111506000Y-77470000D03*
X111506000Y-80010000D03*
X111506000Y-82550000D03*
X111506000Y-85090000D03*
X111506000Y-87630000D03*
X96266000Y-87630000D03*
X96266000Y-85090000D03*
X96266000Y-82550000D03*
X96266000Y-80010000D03*
X96266000Y-77470000D03*
X96266000Y-74930000D03*
X96266000Y-72390000D03*
X96266000Y-69850000D03*
X96266000Y-67310000D03*
X96266000Y-64770000D03*
X96266000Y-62230000D03*
X96266000Y-59690000D03*
X96266000Y-57150000D03*
X96266000Y-54610000D03*
X96266000Y-52070000D03*
D23*
X96266000Y-49530000D03*
%TD*%
D10*
%TO.C,U4*%
X197190000Y-102430000D03*
X197190000Y-99890000D03*
X197190000Y-97350000D03*
X197190000Y-94810000D03*
X197190000Y-92270000D03*
X197190000Y-89730000D03*
X197190000Y-87190000D03*
X197190000Y-84650000D03*
X197190000Y-82110000D03*
X197190000Y-79570000D03*
X204810000Y-79570000D03*
X204810000Y-82110000D03*
X204810000Y-84650000D03*
X204810000Y-87190000D03*
X204810000Y-89730000D03*
X204810000Y-92270000D03*
X204810000Y-94810000D03*
X204810000Y-97350000D03*
X204810000Y-99890000D03*
D14*
X204810000Y-102430000D03*
%TD*%
D15*
%TO.C,D36*%
X194051000Y-159004000D03*
D16*
X191511000Y-159004000D03*
%TD*%
D12*
%TO.C,C11*%
X259334000Y-190540000D03*
X259334000Y-195540000D03*
%TD*%
D29*
%TO.C,SW6*%
X192024000Y-144562000D03*
X192024000Y-136362000D03*
D30*
X192024000Y-142462000D03*
X192024000Y-140462000D03*
X192024000Y-138462000D03*
%TD*%
D10*
%TO.C,U31*%
X253746000Y-49276000D03*
X253746000Y-51816000D03*
X253746000Y-54356000D03*
X253746000Y-56896000D03*
X253746000Y-59436000D03*
X253746000Y-61976000D03*
X253746000Y-64516000D03*
X253746000Y-67056000D03*
X253746000Y-69596000D03*
X253746000Y-72136000D03*
X253746000Y-74676000D03*
X253746000Y-77216000D03*
X253746000Y-79756000D03*
X253746000Y-82296000D03*
X253746000Y-84836000D03*
X253746000Y-87376000D03*
X253746000Y-89916000D03*
X253746000Y-92456000D03*
X253746000Y-94996000D03*
X253746000Y-97536000D03*
X238506000Y-97536000D03*
X238506000Y-94996000D03*
X238506000Y-92456000D03*
X238506000Y-89916000D03*
X238506000Y-87376000D03*
X238506000Y-84836000D03*
X238506000Y-82296000D03*
X238506000Y-79756000D03*
X238506000Y-77216000D03*
X238506000Y-74676000D03*
X238506000Y-72136000D03*
X238506000Y-69596000D03*
X238506000Y-67056000D03*
X238506000Y-64516000D03*
X238506000Y-61976000D03*
X238506000Y-59436000D03*
X238506000Y-56896000D03*
X238506000Y-54356000D03*
X238506000Y-51816000D03*
D11*
X238506000Y-49276000D03*
%TD*%
D12*
%TO.C,C35*%
X204938000Y-45212000D03*
X199938000Y-45212000D03*
%TD*%
D15*
%TO.C,D31*%
X232410000Y-167132000D03*
D16*
X229870000Y-167132000D03*
%TD*%
D12*
%TO.C,C8*%
X107402000Y-36068000D03*
X102402000Y-36068000D03*
%TD*%
D26*
%TO.C,R59*%
X203962000Y-171196000D03*
X203962000Y-186436000D03*
%TD*%
D12*
%TO.C,C39*%
X166330000Y-118618000D03*
X161330000Y-118618000D03*
%TD*%
D15*
%TO.C,D25*%
X76200000Y-144780000D03*
D16*
X73660000Y-144780000D03*
%TD*%
D10*
%TO.C,U22*%
X119634000Y-146558000D03*
X119634000Y-144018000D03*
X119634000Y-141478000D03*
X119634000Y-138938000D03*
X119634000Y-136398000D03*
X119634000Y-133858000D03*
X119634000Y-131318000D03*
X119634000Y-128778000D03*
X119634000Y-126238000D03*
X119634000Y-123698000D03*
X127254000Y-123698000D03*
X127254000Y-126238000D03*
X127254000Y-128778000D03*
X127254000Y-131318000D03*
X127254000Y-133858000D03*
X127254000Y-136398000D03*
X127254000Y-138938000D03*
X127254000Y-141478000D03*
X127254000Y-144018000D03*
D14*
X127254000Y-146558000D03*
%TD*%
D12*
%TO.C,C31*%
X208280000Y-163148000D03*
X208280000Y-168148000D03*
%TD*%
D10*
%TO.C,U21*%
X135382000Y-146558000D03*
X135382000Y-144018000D03*
X135382000Y-141478000D03*
X135382000Y-138938000D03*
X135382000Y-136398000D03*
X135382000Y-133858000D03*
X135382000Y-131318000D03*
X135382000Y-128778000D03*
X135382000Y-126238000D03*
X135382000Y-123698000D03*
X143002000Y-123698000D03*
X143002000Y-126238000D03*
X143002000Y-128778000D03*
X143002000Y-131318000D03*
X143002000Y-133858000D03*
X143002000Y-136398000D03*
X143002000Y-138938000D03*
X143002000Y-141478000D03*
X143002000Y-144018000D03*
D14*
X143002000Y-146558000D03*
%TD*%
D12*
%TO.C,C24*%
X251734000Y-193040000D03*
X254234000Y-193040000D03*
%TD*%
%TO.C,C17*%
X106466000Y-109982000D03*
X111466000Y-109982000D03*
%TD*%
%TO.C,U29*%
X174498000Y-167386000D03*
X177038000Y-167386000D03*
X179578000Y-167386000D03*
X182118000Y-167386000D03*
X184658000Y-167386000D03*
X184658000Y-182626000D03*
X182118000Y-182626000D03*
X179578000Y-182626000D03*
X177038000Y-182626000D03*
D17*
X174498000Y-182626000D03*
%TD*%
D31*
%TO.C,SW3*%
X191088000Y-194056000D03*
D32*
X196088000Y-194056000D03*
%TD*%
D27*
%TO.C,J6*%
X267208000Y-41656000D03*
X267208000Y-44196000D03*
X267208000Y-46736000D03*
X267208000Y-49276000D03*
X267208000Y-51816000D03*
X267208000Y-54356000D03*
X267208000Y-56896000D03*
X267208000Y-59436000D03*
X267208000Y-61976000D03*
X267208000Y-64516000D03*
X267208000Y-67056000D03*
X267208000Y-69596000D03*
X267208000Y-72136000D03*
D28*
X267208000Y-74676000D03*
%TD*%
D27*
%TO.C,J2*%
X267208000Y-116840000D03*
X267208000Y-119380000D03*
X267208000Y-121920000D03*
X267208000Y-124460000D03*
X267208000Y-127000000D03*
X267208000Y-129540000D03*
X267208000Y-132080000D03*
X267208000Y-134620000D03*
X267208000Y-137160000D03*
X267208000Y-139700000D03*
X267208000Y-142240000D03*
X267208000Y-144780000D03*
X267208000Y-147320000D03*
D28*
X267208000Y-149860000D03*
%TD*%
D12*
%TO.C,C14*%
X196302000Y-182118000D03*
X191302000Y-182118000D03*
%TD*%
%TO.C,C33*%
X220472000Y-171022000D03*
X220472000Y-176022000D03*
%TD*%
%TO.C,C40*%
X194604000Y-173482000D03*
X199604000Y-173482000D03*
%TD*%
%TO.C,C19*%
X99822000Y-116118000D03*
X99822000Y-118618000D03*
%TD*%
D29*
%TO.C,SW5*%
X243550000Y-180594000D03*
X251750000Y-180594000D03*
D30*
X245650000Y-180594000D03*
X247650000Y-180594000D03*
X249650000Y-180594000D03*
%TD*%
D10*
%TO.C,U28*%
X175768000Y-146558000D03*
X175768000Y-144018000D03*
X175768000Y-141478000D03*
X175768000Y-138938000D03*
X175768000Y-136398000D03*
X175768000Y-133858000D03*
X175768000Y-131318000D03*
X175768000Y-128778000D03*
X175768000Y-126238000D03*
X175768000Y-123698000D03*
X183388000Y-123698000D03*
X183388000Y-126238000D03*
X183388000Y-128778000D03*
X183388000Y-131318000D03*
X183388000Y-133858000D03*
X183388000Y-136398000D03*
X183388000Y-138938000D03*
X183388000Y-141478000D03*
X183388000Y-144018000D03*
D14*
X183388000Y-146558000D03*
%TD*%
D27*
%TO.C,J5*%
X195072000Y-149098000D03*
D28*
X192532000Y-149098000D03*
%TD*%
D12*
%TO.C,C4*%
X229434000Y-187742000D03*
X231934000Y-187742000D03*
%TD*%
D26*
%TO.C,R3*%
X237796000Y-173772000D03*
X237796000Y-189012000D03*
%TD*%
D33*
%TO.C,R2*%
X233732000Y-183932000D03*
X233732000Y-176312000D03*
%TD*%
D12*
%TO.C,C28*%
X110196000Y-118618000D03*
X105196000Y-118618000D03*
%TD*%
D22*
%TO.C,U11*%
X136652000Y-49530000D03*
X136652000Y-52070000D03*
X136652000Y-54610000D03*
X136652000Y-57150000D03*
X136652000Y-59690000D03*
X136652000Y-62230000D03*
X136652000Y-64770000D03*
X136652000Y-67310000D03*
X136652000Y-69850000D03*
X136652000Y-72390000D03*
X136652000Y-74930000D03*
X136652000Y-77470000D03*
X136652000Y-80010000D03*
X136652000Y-82550000D03*
X136652000Y-85090000D03*
X136652000Y-87630000D03*
X121412000Y-87630000D03*
X121412000Y-85090000D03*
X121412000Y-82550000D03*
X121412000Y-80010000D03*
X121412000Y-77470000D03*
X121412000Y-74930000D03*
X121412000Y-72390000D03*
X121412000Y-69850000D03*
X121412000Y-67310000D03*
X121412000Y-64770000D03*
X121412000Y-62230000D03*
X121412000Y-59690000D03*
X121412000Y-57150000D03*
X121412000Y-54610000D03*
X121412000Y-52070000D03*
D23*
X121412000Y-49530000D03*
%TD*%
D12*
%TO.C,C29*%
X210780000Y-153670000D03*
X208280000Y-153670000D03*
%TD*%
%TO.C,C10*%
X129580000Y-109474000D03*
X134580000Y-109474000D03*
%TD*%
D15*
%TO.C,D26*%
X76200000Y-160020000D03*
D16*
X73660000Y-160020000D03*
%TD*%
D12*
%TO.C,C15*%
X208788000Y-146010000D03*
X208788000Y-141010000D03*
%TD*%
%TO.C,C27*%
X125944000Y-118618000D03*
X120944000Y-118618000D03*
%TD*%
D26*
%TO.C,R63*%
X213106000Y-171196000D03*
X213106000Y-186436000D03*
%TD*%
D31*
%TO.C,J7*%
X206074000Y-194056000D03*
D32*
X211074000Y-194056000D03*
%TD*%
D12*
%TO.C,C23*%
X183916000Y-110998000D03*
X186416000Y-110998000D03*
%TD*%
%TO.C,C20*%
X258826000Y-79796000D03*
X258826000Y-84796000D03*
%TD*%
%TO.C,U25*%
X134112000Y-167386000D03*
X136652000Y-167386000D03*
X139192000Y-167386000D03*
X141732000Y-167386000D03*
X144272000Y-167386000D03*
X144272000Y-182626000D03*
X141732000Y-182626000D03*
X139192000Y-182626000D03*
X136652000Y-182626000D03*
D17*
X134112000Y-182626000D03*
%TD*%
D12*
%TO.C,U26*%
X118364000Y-167386000D03*
X120904000Y-167386000D03*
X123444000Y-167386000D03*
X125984000Y-167386000D03*
X128524000Y-167386000D03*
X128524000Y-182626000D03*
X125984000Y-182626000D03*
X123444000Y-182626000D03*
X120904000Y-182626000D03*
D17*
X118364000Y-182626000D03*
%TD*%
D12*
%TO.C,C32*%
X223520000Y-163148000D03*
X223520000Y-168148000D03*
%TD*%
M02*
