M48
; DRILL file KiCad 10.0.4 date 2026-07-17T03:26:58
; FORMAT={-:-/ absolute / metric / decimal}
; #@! TF.CreationDate,2026-07-17T03:26:58+02:00
; #@! TF.GenerationSoftware,Kicad,Pcbnew,10.0.4
; #@! TF.FileFunction,Plated,1,4,PTH
FMAT,2
METRIC
; #@! TA.AperFunction,Plated,PTH,ViaDrill
T1C0.300
; #@! TA.AperFunction,Plated,PTH,ViaDrill
T2C0.500
; #@! TA.AperFunction,Plated,PTH,ComponentDrill
T3C0.700
; #@! TA.AperFunction,Plated,PTH,ComponentDrill
T4C0.800
; #@! TA.AperFunction,Plated,PTH,ComponentDrill
T5C0.900
; #@! TA.AperFunction,Plated,PTH,ComponentDrill
T6C1.000
; #@! TA.AperFunction,Plated,PTH,ComponentDrill
T7C1.100
; #@! TA.AperFunction,Plated,PTH,ComponentDrill
T8C1.200
; #@! TA.AperFunction,Plated,PTH,ComponentDrill
T9C1.400
; #@! TA.AperFunction,Plated,PTH,ComponentDrill
T10C1.500
%
G90
G05
T1
X68.58Y-35.56
X68.58Y-43.18
X68.58Y-50.8
X68.58Y-58.42
X68.58Y-66.04
X68.58Y-73.66
X68.58Y-81.28
X68.58Y-88.9
X68.58Y-96.52
X68.58Y-104.14
X68.58Y-111.76
X68.58Y-119.38
X68.58Y-127.0
X68.58Y-134.62
X68.58Y-142.24
X68.58Y-149.86
X68.58Y-157.48
X68.58Y-165.1
X68.58Y-172.72
X68.58Y-180.34
X68.58Y-187.96
X68.58Y-195.58
X73.66Y-200.66
X76.2Y-34.29
X81.28Y-200.66
X81.534Y-42.418
X81.534Y-57.658
X81.534Y-73.152
X81.534Y-156.464
X81.788Y-88.138
X81.788Y-110.744
X81.788Y-125.984
X81.788Y-141.224
X81.788Y-171.45
X81.788Y-186.817
X83.82Y-34.29
X85.979Y-153.416
X87.122Y-195.834
X88.9Y-200.66
X90.424Y-195.834
X91.059Y-130.683
X91.44Y-34.29
X91.821Y-150.876
X93.726Y-60.96
X94.107Y-153.416
X94.234Y-91.694
X94.488Y-59.182
X96.52Y-195.834
X96.52Y-200.66
X96.774Y-153.416
X99.06Y-34.29
X99.568Y-53.848
X101.092Y-153.416
X101.6Y-101.6
X102.87Y-195.834
X103.886Y-153.416
X104.14Y-200.66
X105.664Y-53.086
X106.172Y-195.834
X106.68Y-34.29
X107.188Y-150.749
X107.442Y-131.318
X109.474Y-101.854
X109.474Y-153.416
X111.76Y-200.66
X112.268Y-153.416
X112.268Y-195.834
X112.585Y-92.9
X114.3Y-34.29
X114.554Y-68.58
X115.316Y-73.66
X115.824Y-66.04
X116.586Y-63.5
X116.84Y-153.416
X117.348Y-67.31
X117.348Y-113.03
X118.11Y-64.77
X118.11Y-110.998
X118.745Y-195.834
X118.872Y-62.23
X118.872Y-111.76
X119.38Y-200.66
X119.634Y-59.69
X119.634Y-111.252
X120.523Y-114.046
X121.285Y-113.284
X121.92Y-34.29
X121.92Y-195.834
X122.047Y-112.522
X122.682Y-111.76
X122.682Y-131.064
X122.936Y-150.876
X124.904Y-92.011
X125.222Y-153.416
X125.476Y-56.134
X126.873Y-93.599
X127.0Y-200.66
X128.016Y-153.416
X128.397Y-195.834
X129.159Y-92.583
X129.54Y-34.29
X130.048Y-58.42
X130.302Y-145.034
X131.064Y-101.854
X131.826Y-94.996
X132.08Y-58.674
X132.461Y-153.416
X132.842Y-93.472
X133.096Y-60.29
X133.096Y-111.506
X134.112Y-61.087
X134.366Y-76.2
X134.493Y-195.834
X134.62Y-200.66
X135.382Y-90.678
X135.509Y-153.416
X137.16Y-34.29
X137.795Y-195.834
X138.176Y-53.34
X138.684Y-150.622
X138.938Y-131.318
X139.192Y-58.674
X140.208Y-98.044
X140.462Y-91.186
X140.97Y-153.416
X141.478Y-96.266
X141.986Y-53.34
X141.986Y-98.806
X142.24Y-200.66
X142.494Y-76.2
X142.91Y-65.532
X143.002Y-79.629
X143.764Y-153.416
X143.891Y-195.834
X144.272Y-87.376
X144.78Y-34.29
X145.034Y-66.294
X145.034Y-74.93
X145.034Y-77.47
X145.034Y-82.55
X145.288Y-80.137
X146.113Y-114.236
X146.177Y-95.377
X146.304Y-89.408
X147.32Y-87.884
X147.32Y-123.952
X147.828Y-151.892
X148.554Y-96.366
X149.098Y-79.502
X149.225Y-74.549
X149.606Y-77.089
X149.606Y-82.55
X149.86Y-200.66
X149.987Y-66.294
X150.368Y-73.66
X150.368Y-119.634
X150.368Y-151.384
X151.384Y-74.93
X151.638Y-97.79
X151.648Y-77.089
X152.4Y-34.29
X152.908Y-79.248
X153.924Y-78.232
X155.194Y-88.646
X155.702Y-95.504
X155.956Y-81.026
X156.083Y-107.569
X156.21Y-85.852
X156.972Y-108.712
X157.134Y-153.416
X157.226Y-87.376
X157.48Y-200.66
X157.988Y-81.28
X157.988Y-95.758
X158.496Y-108.458
X158.75Y-50.8
X159.004Y-66.294
X159.004Y-76.2
X159.004Y-110.49
X159.004Y-195.834
X160.02Y-34.29
X160.02Y-76.454
X160.02Y-153.416
X160.274Y-66.04
X160.274Y-74.93
X160.274Y-77.47
X160.274Y-80.01
X160.274Y-82.55
X160.528Y-85.09
X160.528Y-94.996
X162.052Y-109.22
X162.306Y-195.834
X163.322Y-150.495
X163.494Y-130.683
X164.846Y-74.93
X164.846Y-77.47
X164.846Y-82.55
X165.1Y-66.421
X165.1Y-71.12
X165.1Y-109.81
X165.1Y-200.66
X165.608Y-65.532
X165.608Y-121.158
X165.608Y-153.416
X165.735Y-79.756
X166.37Y-49.784
X166.624Y-89.916
X167.64Y-34.29
X168.402Y-80.68
X168.402Y-153.416
X168.402Y-195.834
X168.91Y-96.774
X169.418Y-93.472
X170.434Y-87.63
X170.942Y-65.659
X170.942Y-125.222
X171.005Y-89.471
X171.831Y-94.996
X172.466Y-98.552
X172.593Y-95.758
X172.72Y-200.66
X172.847Y-153.416
X173.228Y-97.79
X174.752Y-195.834
X175.26Y-34.29
X175.387Y-66.548
X175.768Y-153.416
X176.975Y-93.916
X177.546Y-99.822
X178.054Y-84.328
X178.181Y-195.834
X178.562Y-98.298
X178.816Y-147.701
X179.07Y-86.614
X179.197Y-130.429
X179.705Y-110.49
X179.832Y-109.22
X179.996Y-151.257
X180.086Y-116.84
X180.086Y-146.304
X180.168Y-122.428
X180.34Y-200.66
X180.721Y-65.659
X180.754Y-150.286
X180.848Y-92.71
X180.848Y-148.418
X181.102Y-72.644
X181.61Y-34.29
X181.61Y-96.774
X181.61Y-115.824
X181.61Y-150.368
X181.708Y-148.418
X181.864Y-69.83
X182.036Y-154.305
X182.372Y-64.77
X182.372Y-67.29
X182.372Y-107.95
X182.389Y-91.803
X182.88Y-121.92
X183.134Y-87.757
X183.134Y-106.172
X183.46Y-83.439
X183.642Y-62.738
X183.642Y-108.204
X183.896Y-103.886
X183.896Y-153.416
X184.048Y-86.106
X184.16Y-59.68
X184.576Y-91.342
X184.648Y-148.751
X184.648Y-89.074
X184.74Y-149.606
X184.785Y-54.864
X184.912Y-57.13
X184.912Y-105.918
X185.248Y-90.805
X185.248Y-147.574
X185.42Y-100.33
X185.674Y-105.156
X185.928Y-54.102
X185.928Y-95.504
X185.928Y-128.524
X185.928Y-146.05
X186.182Y-99.314
X186.182Y-121.158
X186.69Y-125.984
X186.69Y-146.685
X186.944Y-104.902
X187.452Y-120.904
X187.452Y-145.923
X187.706Y-99.822
X187.96Y-200.66
X188.132Y-146.685
X188.204Y-116.205
X188.849Y-145.923
X189.23Y-112.522
X189.484Y-111.506
X189.564Y-146.685
X189.738Y-117.856
X190.164Y-121.628
X190.5Y-34.29
X190.5Y-152.146
X190.754Y-54.102
X190.754Y-55.88
X190.754Y-67.056
X190.754Y-151.13
X190.881Y-57.023
X191.262Y-61.214
X191.516Y-89.916
X191.77Y-82.042
X191.932Y-69.723
X192.024Y-57.15
X192.913Y-77.47
X193.04Y-66.04
X193.294Y-59.69
X193.294Y-64.008
X193.675Y-71.12
X193.929Y-72.98
X194.056Y-58.42
X194.056Y-72.009
X194.056Y-76.708
X194.056Y-85.344
X194.056Y-100.076
X194.056Y-139.192
X194.056Y-141.732
X194.437Y-69.342
X194.818Y-54.102
X194.818Y-80.264
X194.818Y-123.698
X194.818Y-126.238
X195.072Y-107.188
X195.262Y-143.192
X195.58Y-146.304
X195.58Y-200.66
X195.834Y-121.666
X195.834Y-123.063
X196.85Y-125.984
X197.358Y-111.252
X197.358Y-120.65
X197.612Y-108.712
X197.993Y-78.105
X198.12Y-34.29
X199.136Y-54.102
X199.136Y-66.802
X199.39Y-59.182
X200.914Y-79.248
X201.041Y-95.123
X201.168Y-147.574
X201.422Y-51.308
X201.422Y-68.326
X201.422Y-76.581
X202.184Y-56.388
X202.184Y-59.182
X202.819Y-141.224
X202.946Y-55.372
X202.946Y-64.008
X202.946Y-129.54
X202.946Y-135.636
X202.946Y-183.134
X203.2Y-200.66
X203.708Y-116.332
X204.343Y-144.526
X205.232Y-141.478
X205.486Y-110.236
X205.74Y-34.29
X205.994Y-105.537
X205.994Y-125.476
X206.502Y-49.784
X206.629Y-71.882
X206.946Y-142.684
X207.01Y-92.964
X207.01Y-97.409
X207.264Y-93.98
X207.645Y-138.557
X208.28Y-102.108
X209.55Y-74.676
X209.55Y-88.392
X209.804Y-136.906
X210.566Y-120.904
X210.82Y-57.658
X210.82Y-60.452
X210.82Y-200.66
X211.074Y-134.112
X211.074Y-142.24
X211.5Y-83.185
X212.09Y-117.094
X212.344Y-136.906
X212.934Y-111.887
X213.36Y-34.29
X213.614Y-118.364
X213.614Y-143.002
X213.677Y-125.158
X214.122Y-106.172
X214.122Y-126.238
X215.646Y-144.018
X215.773Y-83.185
X215.9Y-147.574
X216.154Y-139.065
X216.281Y-142.494
X216.789Y-144.145
X217.424Y-147.828
X217.551Y-55.88
X218.186Y-60.96
X218.186Y-101.346
X218.186Y-144.018
X218.313Y-49.911
X218.44Y-200.66
X219.075Y-51.943
X219.202Y-65.532
X219.202Y-75.438
X219.202Y-124.206
X219.456Y-97.282
X219.583Y-54.483
X219.964Y-147.447
X220.218Y-81.788
X220.472Y-57.912
X220.472Y-104.14
X220.98Y-34.29
X220.98Y-87.884
X221.107Y-146.177
X221.234Y-60.198
X221.234Y-82.042
X221.234Y-129.286
X221.234Y-132.588
X221.488Y-85.852
X221.996Y-93.218
X221.996Y-116.84
X221.996Y-144.018
X221.996Y-148.59
X222.313Y-88.328
X222.504Y-90.932
X222.758Y-65.024
X223.075Y-91.63
X223.266Y-62.484
X223.266Y-98.552
X223.266Y-130.81
X223.647Y-70.104
X224.282Y-67.183
X224.282Y-72.644
X224.536Y-75.184
X224.536Y-114.808
X225.298Y-85.344
X226.06Y-200.66
X228.6Y-34.29
X229.108Y-122.428
X231.521Y-123.063
X232.156Y-57.912
X232.41Y-74.168
X232.41Y-81.788
X232.918Y-126.746
X233.68Y-200.66
X233.807Y-97.663
X234.379Y-158.052
X234.442Y-61.976
X234.442Y-115.316
X235.112Y-154.178
X235.204Y-102.87
X235.458Y-60.071
X235.522Y-112.078
X236.22Y-34.29
X236.22Y-100.33
X240.22Y-81.216
X240.538Y-94.996
X240.538Y-147.193
X241.3Y-84.074
X241.3Y-97.536
X241.3Y-149.987
X241.3Y-200.66
X242.062Y-49.784
X242.062Y-75.946
X242.062Y-101.854
X242.57Y-173.482
X242.633Y-104.584
X242.824Y-52.324
X242.824Y-78.486
X242.824Y-165.354
X243.332Y-106.934
X243.504Y-54.864
X243.586Y-70.866
X243.84Y-34.29
X244.094Y-40.64
X244.104Y-85.217
X244.221Y-100.457
X244.348Y-140.97
X244.602Y-150.876
X244.856Y-82.804
X244.856Y-99.06
X245.364Y-146.05
X245.364Y-152.654
X245.618Y-80.264
X245.618Y-95.758
X245.65Y-170.434
X246.126Y-138.43
X246.253Y-107.95
X246.375Y-135.387
X246.38Y-77.724
X246.38Y-93.218
X246.634Y-164.592
X247.142Y-72.644
X247.142Y-90.678
X247.396Y-97.536
X247.396Y-163.83
X247.65Y-133.35
X247.904Y-70.104
X247.904Y-88.138
X248.158Y-95.123
X248.158Y-163.068
X248.412Y-130.81
X248.602Y-67.501
X248.666Y-85.598
X248.92Y-162.306
X248.92Y-200.66
X249.174Y-125.73
X249.428Y-65.024
X249.51Y-83.312
X249.682Y-161.544
X249.936Y-123.19
X250.063Y-55.245
X250.19Y-68.326
X250.317Y-63.246
X250.38Y-106.87
X250.444Y-160.782
X250.698Y-52.451
X250.698Y-120.65
X250.952Y-104.394
X251.206Y-160.02
X251.46Y-34.29
X251.46Y-118.11
X251.587Y-49.784
X251.587Y-66.929
X251.714Y-101.854
X251.968Y-159.258
X252.14Y-81.706
X252.14Y-83.82
X252.222Y-65.405
X252.222Y-70.866
X255.352Y-83.185
X255.524Y-73.406
X255.778Y-66.294
X255.778Y-109.474
X256.032Y-60.706
X256.286Y-121.412
X256.286Y-139.7
X256.54Y-112.014
X256.54Y-144.018
X256.54Y-200.66
X256.794Y-47.244
X256.794Y-64.008
X257.302Y-87.884
X257.556Y-49.784
X257.556Y-66.548
X258.318Y-69.088
X258.318Y-89.916
X258.318Y-92.964
X258.381Y-52.261
X259.08Y-34.29
X259.08Y-54.864
X259.08Y-71.628
X259.08Y-95.25
X259.507Y-142.413
X259.842Y-57.404
X259.842Y-74.168
X260.223Y-94.742
X260.604Y-59.944
X260.604Y-76.708
X261.366Y-62.484
X261.366Y-77.724
X261.62Y-141.478
X262.128Y-65.024
X262.128Y-81.788
X262.636Y-117.602
X262.636Y-150.114
X263.525Y-119.761
X263.652Y-97.028
X264.16Y-34.29
X264.16Y-200.66
X264.668Y-45.974
X269.24Y-35.56
X269.24Y-40.64
X269.24Y-48.26
X269.24Y-55.88
X269.24Y-63.5
X269.24Y-71.12
X269.24Y-78.74
X269.24Y-86.36
X269.24Y-93.98
X269.24Y-101.6
X269.24Y-109.22
X269.24Y-116.84
X269.24Y-124.46
X269.24Y-132.08
X269.24Y-139.7
X269.24Y-147.32
X269.24Y-154.94
X269.24Y-162.56
X269.24Y-170.18
X269.24Y-177.8
X269.24Y-185.42
X269.24Y-193.04
X269.24Y-200.66
T2
X81.28Y-153.416
X82.296Y-195.58
X131.318Y-124.206
X146.558Y-153.416
X154.432Y-153.416
X179.324Y-114.3
X183.134Y-114.3
X185.166Y-195.834
X190.246Y-153.416
X191.262Y-104.14
X200.152Y-74.93
X213.106Y-151.13
X223.178Y-150.456
X225.044Y-134.62
X225.044Y-138.938
X226.568Y-129.286
X261.112Y-138.938
X261.366Y-109.728
X263.398Y-79.756
T3
X215.614Y-164.37
X215.614Y-166.91
X216.884Y-165.64
X233.732Y-176.312
X233.732Y-183.932
T4
X86.868Y-167.386
X86.868Y-182.626
X88.138Y-123.698
X88.138Y-126.238
X88.138Y-128.778
X88.138Y-131.318
X88.138Y-133.858
X88.138Y-136.398
X88.138Y-138.938
X88.138Y-141.478
X88.138Y-144.018
X88.138Y-146.558
X89.408Y-167.386
X89.408Y-182.626
X89.448Y-118.618
X91.948Y-167.386
X91.948Y-182.626
X94.448Y-118.618
X94.488Y-167.386
X94.488Y-182.626
X95.758Y-123.698
X95.758Y-126.238
X95.758Y-128.778
X95.758Y-131.318
X95.758Y-133.858
X95.758Y-136.398
X95.758Y-138.938
X95.758Y-141.478
X95.758Y-144.018
X95.758Y-146.558
X96.266Y-98.298
X96.266Y-105.918
X97.028Y-167.386
X97.028Y-182.626
X98.806Y-98.298
X98.806Y-105.918
X99.822Y-116.118
X99.822Y-118.618
X101.346Y-98.298
X101.346Y-105.918
X102.402Y-36.068
X102.616Y-167.386
X102.616Y-182.626
X103.886Y-98.298
X103.886Y-105.918
X103.886Y-123.698
X103.886Y-126.238
X103.886Y-128.778
X103.886Y-131.318
X103.886Y-133.858
X103.886Y-136.398
X103.886Y-138.938
X103.886Y-141.478
X103.886Y-144.018
X103.886Y-146.558
X105.156Y-167.386
X105.156Y-182.626
X105.196Y-118.618
X106.426Y-98.298
X106.426Y-105.918
X106.466Y-109.982
X107.402Y-36.068
X107.696Y-167.386
X107.696Y-182.626
X108.966Y-98.298
X108.966Y-105.918
X110.196Y-118.618
X110.236Y-167.386
X110.236Y-182.626
X111.466Y-109.982
X111.506Y-98.298
X111.506Y-105.918
X111.506Y-123.698
X111.506Y-126.238
X111.506Y-128.778
X111.506Y-131.318
X111.506Y-133.858
X111.506Y-136.398
X111.506Y-138.938
X111.506Y-141.478
X111.506Y-144.018
X111.506Y-146.558
X112.776Y-167.386
X112.776Y-182.626
X118.364Y-167.386
X118.364Y-182.626
X119.634Y-123.698
X119.634Y-126.238
X119.634Y-128.778
X119.634Y-131.318
X119.634Y-133.858
X119.634Y-136.398
X119.634Y-138.938
X119.634Y-141.478
X119.634Y-144.018
X119.634Y-146.558
X120.904Y-167.386
X120.904Y-182.626
X120.944Y-118.618
X121.412Y-98.298
X121.412Y-105.918
X123.444Y-167.386
X123.444Y-182.626
X123.952Y-98.298
X123.952Y-105.918
X125.944Y-118.618
X125.984Y-167.386
X125.984Y-182.626
X126.492Y-98.298
X126.492Y-105.918
X127.254Y-123.698
X127.254Y-126.238
X127.254Y-128.778
X127.254Y-131.318
X127.254Y-133.858
X127.254Y-136.398
X127.254Y-138.938
X127.254Y-141.478
X127.254Y-144.018
X127.254Y-146.558
X128.524Y-167.386
X128.524Y-182.626
X129.032Y-98.298
X129.032Y-105.918
X129.58Y-109.474
X129.834Y-36.068
X131.318Y-116.118
X131.318Y-118.618
X131.572Y-98.298
X131.572Y-105.918
X134.112Y-98.298
X134.112Y-105.918
X134.112Y-167.386
X134.112Y-182.626
X134.58Y-109.474
X134.834Y-36.068
X135.382Y-123.698
X135.382Y-126.238
X135.382Y-128.778
X135.382Y-131.318
X135.382Y-133.858
X135.382Y-136.398
X135.382Y-138.938
X135.382Y-141.478
X135.382Y-144.018
X135.382Y-146.558
X136.652Y-98.298
X136.652Y-105.918
X136.652Y-167.386
X136.652Y-182.626
X136.692Y-118.618
X139.192Y-167.386
X139.192Y-182.626
X141.692Y-118.618
X141.732Y-167.386
X141.732Y-182.626
X143.002Y-123.698
X143.002Y-126.238
X143.002Y-128.778
X143.002Y-131.318
X143.002Y-133.858
X143.002Y-136.398
X143.002Y-138.938
X143.002Y-141.478
X143.002Y-144.018
X143.002Y-146.558
X144.018Y-92.71
X144.018Y-100.33
X144.272Y-167.386
X144.272Y-182.626
X146.558Y-92.71
X146.558Y-100.33
X149.098Y-92.71
X149.098Y-100.33
X151.638Y-92.71
X151.638Y-100.33
X154.178Y-92.71
X154.178Y-100.33
X155.234Y-105.664
X156.718Y-92.71
X156.718Y-100.33
X157.56Y-36.068
X158.75Y-167.386
X158.75Y-182.626
X159.258Y-92.71
X159.258Y-100.33
X160.02Y-123.698
X160.02Y-126.238
X160.02Y-128.778
X160.02Y-131.318
X160.02Y-133.858
X160.02Y-136.398
X160.02Y-138.938
X160.02Y-141.478
X160.02Y-144.018
X160.02Y-146.558
X160.234Y-105.664
X161.29Y-167.386
X161.29Y-182.626
X161.33Y-118.618
X161.798Y-92.71
X161.798Y-100.33
X162.56Y-36.068
X163.83Y-167.386
X163.83Y-182.626
X164.338Y-92.71
X164.338Y-100.33
X166.33Y-118.618
X166.37Y-167.386
X166.37Y-182.626
X166.878Y-92.71
X166.878Y-100.33
X167.64Y-123.698
X167.64Y-126.238
X167.64Y-128.778
X167.64Y-131.318
X167.64Y-133.858
X167.64Y-136.398
X167.64Y-138.938
X167.64Y-141.478
X167.64Y-144.018
X167.64Y-146.558
X168.91Y-167.386
X168.91Y-182.626
X171.704Y-116.118
X171.704Y-118.618
X174.498Y-167.386
X174.498Y-182.626
X175.768Y-123.698
X175.768Y-126.238
X175.768Y-128.778
X175.768Y-131.318
X175.768Y-133.858
X175.768Y-136.398
X175.768Y-138.938
X175.768Y-141.478
X175.768Y-144.018
X175.768Y-146.558
X177.038Y-167.386
X177.038Y-182.626
X177.078Y-118.618
X179.578Y-167.386
X179.578Y-182.626
X182.078Y-118.618
X182.118Y-167.386
X182.118Y-182.626
X183.388Y-123.698
X183.388Y-126.238
X183.388Y-128.778
X183.388Y-131.318
X183.388Y-133.858
X183.388Y-136.398
X183.388Y-138.938
X183.388Y-141.478
X183.388Y-144.018
X183.388Y-146.558
X183.722Y-36.068
X183.916Y-110.998
X184.658Y-167.386
X184.658Y-182.626
X186.416Y-110.998
X188.722Y-36.068
X188.738Y-173.482
X189.016Y-103.632
X190.738Y-173.482
X191.302Y-182.118
X192.024Y-108.458
X192.024Y-110.998
X192.024Y-113.538
X192.024Y-116.078
X192.024Y-118.618
X192.024Y-121.158
X192.024Y-123.698
X192.024Y-126.238
X192.024Y-128.778
X192.024Y-131.318
X192.024Y-138.462
X192.024Y-140.462
X192.024Y-142.462
X194.016Y-103.632
X194.604Y-173.482
X196.302Y-182.118
X197.19Y-52.07
X197.19Y-54.61
X197.19Y-57.15
X197.19Y-59.69
X197.19Y-62.23
X197.19Y-64.77
X197.19Y-67.31
X197.19Y-69.85
X197.19Y-72.39
X197.19Y-74.93
X197.19Y-79.57
X197.19Y-82.11
X197.19Y-84.65
X197.19Y-87.19
X197.19Y-89.73
X197.19Y-92.27
X197.19Y-94.81
X197.19Y-97.35
X197.19Y-99.89
X197.19Y-102.43
X199.39Y-138.462
X199.39Y-140.462
X199.39Y-142.462
X199.604Y-173.482
X199.644Y-108.458
X199.644Y-110.998
X199.644Y-113.538
X199.644Y-116.078
X199.644Y-118.618
X199.644Y-121.158
X199.644Y-123.698
X199.644Y-126.238
X199.644Y-128.778
X199.644Y-131.318
X199.938Y-45.212
X203.962Y-107.99
X203.962Y-112.99
X204.724Y-127.294
X204.724Y-132.294
X204.81Y-52.07
X204.81Y-54.61
X204.81Y-57.15
X204.81Y-59.69
X204.81Y-62.23
X204.81Y-64.77
X204.81Y-67.31
X204.81Y-69.85
X204.81Y-72.39
X204.81Y-74.93
X204.81Y-79.57
X204.81Y-82.11
X204.81Y-84.65
X204.81Y-87.19
X204.81Y-89.73
X204.81Y-92.27
X204.81Y-94.81
X204.81Y-97.35
X204.81Y-99.89
X204.81Y-102.43
X204.938Y-45.212
X208.28Y-153.67
X208.28Y-163.148
X208.28Y-168.148
X208.788Y-141.01
X208.788Y-146.01
X209.042Y-109.474
X209.042Y-112.014
X209.042Y-114.554
X209.042Y-117.094
X209.042Y-119.634
X209.042Y-122.174
X209.042Y-124.714
X209.042Y-127.254
X209.042Y-129.794
X209.042Y-132.334
X210.78Y-153.67
X215.178Y-36.068
X216.662Y-109.474
X216.662Y-112.014
X216.662Y-114.554
X216.662Y-117.094
X216.662Y-119.634
X216.662Y-122.174
X216.662Y-124.714
X216.662Y-127.254
X216.662Y-129.794
X216.662Y-132.334
X218.492Y-180.122
X218.492Y-182.662
X218.492Y-185.202
X218.492Y-187.742
X218.52Y-153.67
X220.178Y-36.068
X220.472Y-171.022
X220.472Y-176.022
X223.52Y-153.67
X223.52Y-163.148
X223.52Y-168.148
X226.112Y-180.122
X226.112Y-182.662
X226.112Y-185.202
X226.112Y-187.742
X229.434Y-187.742
X229.922Y-178.892
X229.922Y-183.892
X231.934Y-187.742
X238.506Y-49.276
X238.506Y-51.816
X238.506Y-54.356
X238.506Y-56.896
X238.506Y-59.436
X238.506Y-61.976
X238.506Y-64.516
X238.506Y-67.056
X238.506Y-69.596
X238.506Y-72.136
X238.506Y-74.676
X238.506Y-77.216
X238.506Y-79.756
X238.506Y-82.296
X238.506Y-84.836
X238.506Y-87.376
X238.506Y-89.916
X238.506Y-92.456
X238.506Y-94.996
X238.506Y-97.536
X238.506Y-102.367
X238.506Y-104.907
X238.506Y-107.447
X238.506Y-109.987
X238.506Y-112.527
X238.506Y-115.067
X238.506Y-117.607
X238.506Y-120.147
X238.506Y-122.687
X238.506Y-125.227
X238.506Y-127.767
X238.506Y-130.307
X238.506Y-132.847
X238.506Y-135.387
X238.506Y-137.927
X238.506Y-140.467
X238.506Y-143.007
X238.506Y-145.547
X238.506Y-148.087
X238.506Y-150.627
X244.908Y-192.608
X244.908Y-197.608
X245.65Y-168.402
X245.65Y-180.594
X247.65Y-168.402
X247.65Y-180.594
X249.65Y-168.402
X249.65Y-180.594
X251.734Y-193.04
X253.746Y-49.276
X253.746Y-51.816
X253.746Y-54.356
X253.746Y-56.896
X253.746Y-59.436
X253.746Y-61.976
X253.746Y-64.516
X253.746Y-67.056
X253.746Y-69.596
X253.746Y-72.136
X253.746Y-74.676
X253.746Y-77.216
X253.746Y-79.756
X253.746Y-82.296
X253.746Y-84.836
X253.746Y-87.376
X253.746Y-89.916
X253.746Y-92.456
X253.746Y-94.996
X253.746Y-97.536
X253.746Y-102.367
X253.746Y-104.907
X253.746Y-107.447
X253.746Y-109.987
X253.746Y-112.527
X253.746Y-115.067
X253.746Y-117.607
X253.746Y-120.147
X253.746Y-122.687
X253.746Y-125.227
X253.746Y-127.767
X253.746Y-130.307
X253.746Y-132.847
X253.746Y-135.387
X253.746Y-137.927
X253.746Y-140.467
X253.746Y-143.007
X253.746Y-145.547
X253.746Y-148.087
X253.746Y-150.627
X254.234Y-193.04
X258.572Y-138.978
X258.572Y-143.978
X258.826Y-79.796
X258.826Y-84.796
X259.334Y-190.54
X259.334Y-195.54
T5
X73.66Y-45.72
X73.66Y-60.96
X73.66Y-76.2
X73.66Y-91.44
X73.66Y-114.3
X73.66Y-129.54
X73.66Y-144.78
X73.66Y-160.02
X73.66Y-175.26
X73.66Y-190.5
X76.2Y-45.72
X76.2Y-60.96
X76.2Y-76.2
X76.2Y-91.44
X76.2Y-114.3
X76.2Y-129.54
X76.2Y-144.78
X76.2Y-160.02
X76.2Y-175.26
X76.2Y-190.5
X144.521Y-106.172
X147.061Y-106.172
X191.511Y-159.004
X194.051Y-159.004
X229.87Y-167.132
X232.41Y-167.132
X238.506Y-41.656
X238.506Y-156.972
X241.046Y-41.656
X241.046Y-156.972
T6
X96.266Y-49.53
X96.266Y-52.07
X96.266Y-54.61
X96.266Y-57.15
X96.266Y-59.69
X96.266Y-62.23
X96.266Y-64.77
X96.266Y-67.31
X96.266Y-69.85
X96.266Y-72.39
X96.266Y-74.93
X96.266Y-77.47
X96.266Y-80.01
X96.266Y-82.55
X96.266Y-85.09
X96.266Y-87.63
X111.506Y-49.53
X111.506Y-52.07
X111.506Y-54.61
X111.506Y-57.15
X111.506Y-59.69
X111.506Y-62.23
X111.506Y-64.77
X111.506Y-67.31
X111.506Y-69.85
X111.506Y-72.39
X111.506Y-74.93
X111.506Y-77.47
X111.506Y-80.01
X111.506Y-82.55
X111.506Y-85.09
X111.506Y-87.63
X121.412Y-49.53
X121.412Y-52.07
X121.412Y-54.61
X121.412Y-57.15
X121.412Y-59.69
X121.412Y-62.23
X121.412Y-64.77
X121.412Y-67.31
X121.412Y-69.85
X121.412Y-72.39
X121.412Y-74.93
X121.412Y-77.47
X121.412Y-80.01
X121.412Y-82.55
X121.412Y-85.09
X121.412Y-87.63
X136.652Y-49.53
X136.652Y-52.07
X136.652Y-54.61
X136.652Y-57.15
X136.652Y-59.69
X136.652Y-62.23
X136.652Y-64.77
X136.652Y-67.31
X136.652Y-69.85
X136.652Y-72.39
X136.652Y-74.93
X136.652Y-77.47
X136.652Y-80.01
X136.652Y-82.55
X136.652Y-85.09
X136.652Y-87.63
X147.32Y-49.53
X147.32Y-52.07
X147.32Y-54.61
X147.32Y-57.15
X147.32Y-59.69
X147.32Y-62.23
X147.32Y-64.77
X147.32Y-67.31
X147.32Y-69.85
X147.32Y-72.39
X147.32Y-74.93
X147.32Y-77.47
X147.32Y-80.01
X147.32Y-82.55
X162.56Y-49.53
X162.56Y-52.07
X162.56Y-54.61
X162.56Y-57.15
X162.56Y-59.69
X162.56Y-62.23
X162.56Y-64.77
X162.56Y-67.31
X162.56Y-69.85
X162.56Y-72.39
X162.56Y-74.93
X162.56Y-77.47
X162.56Y-80.01
X162.56Y-82.55
X173.607Y-49.51
X173.607Y-52.05
X173.607Y-54.59
X173.607Y-57.13
X173.607Y-59.67
X173.607Y-62.21
X173.607Y-64.75
X173.607Y-67.29
X173.607Y-69.83
X173.607Y-72.37
X173.607Y-74.91
X173.607Y-77.45
X173.607Y-79.99
X173.607Y-82.53
X188.847Y-49.51
X188.847Y-52.05
X188.847Y-54.59
X188.847Y-57.13
X188.847Y-59.67
X188.847Y-62.21
X188.847Y-64.75
X188.847Y-67.29
X188.847Y-69.83
X188.847Y-72.37
X188.847Y-74.91
X188.847Y-77.45
X188.847Y-79.99
X188.847Y-82.53
X192.532Y-149.098
X195.072Y-149.098
X208.275Y-158.496
X213.107Y-49.41
X213.107Y-51.95
X213.107Y-54.49
X213.107Y-57.03
X213.107Y-59.57
X213.107Y-62.11
X213.107Y-64.65
X213.107Y-67.19
X213.107Y-69.73
X213.107Y-72.27
X213.107Y-74.81
X213.107Y-77.35
X213.107Y-79.89
X213.107Y-82.43
X213.107Y-84.97
X213.107Y-87.51
X213.107Y-90.05
X213.107Y-92.59
X213.107Y-95.13
X213.107Y-97.67
X223.515Y-158.496
X228.347Y-49.41
X228.347Y-51.95
X228.347Y-54.49
X228.347Y-57.03
X228.347Y-59.57
X228.347Y-62.11
X228.347Y-64.65
X228.347Y-67.19
X228.347Y-69.73
X228.347Y-72.27
X228.347Y-74.81
X228.347Y-77.35
X228.347Y-79.89
X228.347Y-82.43
X228.347Y-84.97
X228.347Y-87.51
X228.347Y-90.05
X228.347Y-92.59
X228.347Y-95.13
X228.347Y-97.67
X267.208Y-41.656
X267.208Y-44.196
X267.208Y-46.736
X267.208Y-49.276
X267.208Y-51.816
X267.208Y-54.356
X267.208Y-56.896
X267.208Y-59.436
X267.208Y-61.976
X267.208Y-64.516
X267.208Y-67.056
X267.208Y-69.596
X267.208Y-72.136
X267.208Y-74.676
X267.208Y-79.248
X267.208Y-81.788
X267.208Y-84.328
X267.208Y-86.868
X267.208Y-89.408
X267.208Y-91.948
X267.208Y-94.488
X267.208Y-97.028
X267.208Y-99.568
X267.208Y-102.108
X267.208Y-104.648
X267.208Y-107.188
X267.208Y-109.728
X267.208Y-112.268
X267.208Y-116.84
X267.208Y-119.38
X267.208Y-121.92
X267.208Y-124.46
X267.208Y-127.0
X267.208Y-129.54
X267.208Y-132.08
X267.208Y-134.62
X267.208Y-137.16
X267.208Y-139.7
X267.208Y-142.24
X267.208Y-144.78
X267.208Y-147.32
X267.208Y-149.86
X267.208Y-154.178
X267.208Y-156.718
X267.208Y-159.258
X267.208Y-161.798
X267.208Y-164.338
X267.208Y-166.878
X267.208Y-169.418
X267.208Y-171.958
X267.208Y-174.498
X267.208Y-177.038
X267.208Y-179.578
X267.208Y-182.118
X267.208Y-184.658
X267.208Y-187.198
T7
X218.544Y-193.112
X218.544Y-197.612
X225.044Y-193.112
X225.044Y-197.612
X234.852Y-193.148
X234.852Y-197.648
X241.352Y-193.148
X241.352Y-197.648
T8
X203.962Y-152.4
X203.962Y-167.64
X203.962Y-171.196
X203.962Y-186.436
X208.534Y-171.196
X208.534Y-186.436
X213.106Y-171.196
X213.106Y-186.436
X237.796Y-173.772
X237.796Y-189.012
X257.81Y-171.196
X257.81Y-186.436
T9
X191.088Y-194.056
X196.088Y-194.056
X206.074Y-194.056
X211.074Y-194.056
X228.6Y-111.044
X228.6Y-148.544
T10
X192.024Y-136.362
X192.024Y-144.562
X199.39Y-136.362
X199.39Y-144.562
X243.55Y-168.402
X243.55Y-180.594
X251.75Y-168.402
X251.75Y-180.594
M30
